<svg xmlns="http://www.w3.org/2000/svg" width="420" height="250" viewBox="0 0 420 250" role="img" aria-label="A cat sketch draws itself, passes through an encoder-decoder, and comes out as a fully coloured cat.">
<style>text{font-family:ui-monospace,SFMono-Regular,'SF Mono',Menlo,Consolas,'Liberation Mono','DejaVu Sans Mono',monospace;white-space:pre}@keyframes p0{0.000%{stroke-dashoffset:1}6.522%{stroke-dashoffset:1}52.174%{stroke-dashoffset:0}100.000%{stroke-dashoffset:0}}.p0{animation:p0 4.600s ease-in-out 1 both}@keyframes p1{0.000%{transform:translateY(0)}71.739%{transform:translateY(0)}95.652%{transform:translateY(122px)}100.000%{transform:translateY(122px)}}.p1{animation:p1 4.600s ease-in-out 1 both}@keyframes p2{0.000%{transform:translateX(0);opacity:0}50.000%{transform:translateX(0);opacity:0}51.087%{transform:translateX(0);opacity:1}69.565%{transform:translateX(76px);opacity:1}70.652%{transform:translateX(76px);opacity:0}100.000%{transform:translateX(76px);opacity:0}}.p2{animation:p2 4.600s linear 1 both}@keyframes p3{0.000%{transform:translateX(0);opacity:0}53.478%{transform:translateX(0);opacity:0}54.565%{transform:translateX(0);opacity:1}73.043%{transform:translateX(76px);opacity:1}74.130%{transform:translateX(76px);opacity:0}100.000%{transform:translateX(76px);opacity:0}}.p3{animation:p3 4.600s linear 1 both}@keyframes p4{0.000%{transform:translateX(0);opacity:0}56.957%{transform:translateX(0);opacity:0}58.043%{transform:translateX(0);opacity:1}76.522%{transform:translateX(76px);opacity:1}77.609%{transform:translateX(76px);opacity:0}100.000%{transform:translateX(76px);opacity:0}}.p4{animation:p4 4.600s linear 1 both}@keyframes p5{0.000%{transform:translateX(0);opacity:0}60.435%{transform:translateX(0);opacity:0}61.522%{transform:translateX(0);opacity:1}80.000%{transform:translateX(76px);opacity:1}81.087%{transform:translateX(76px);opacity:0}100.000%{transform:translateX(76px);opacity:0}}.p5{animation:p5 4.600s linear 1 both}@keyframes p6{0.000%{transform:translateX(0);opacity:0}63.913%{transform:translateX(0);opacity:0}65.000%{transform:translateX(0);opacity:1}83.478%{transform:translateX(76px);opacity:1}84.565%{transform:translateX(76px);opacity:0}100.000%{transform:translateX(76px);opacity:0}}.p6{animation:p6 4.600s linear 1 both}
@media (prefers-reduced-motion:reduce){*{animation:none!important}}</style>
<defs><clipPath id="win"><rect x="0.5" y="0.5" width="419" height="249" rx="12"/></clipPath><radialGradient id="fur" cx="0.5" cy="0.35" r="0.7"><stop offset="0" stop-color="#ffb65c"/><stop offset="0.6" stop-color="#e8862f"/><stop offset="1" stop-color="#b85f16"/></radialGradient><linearGradient id="ear" x1="0" y1="0" x2="0" y2="1"><stop offset="0" stop-color="#f7c0ad"/><stop offset="1" stop-color="#d98a74"/></linearGradient><radialGradient id="muz" cx="0.5" cy="0.4" r="0.6"><stop offset="0" stop-color="#fff6e8"/><stop offset="1" stop-color="#f1cfa0"/></radialGradient><radialGradient id="iris" cx="0.5" cy="0.5" r="0.55"><stop offset="0" stop-color="#e8f27a"/><stop offset="0.55" stop-color="#9ccc3c"/><stop offset="1" stop-color="#4d7d17"/></radialGradient><linearGradient id="nose" x1="0" y1="0" x2="0" y2="1"><stop offset="0" stop-color="#f5a0a8"/><stop offset="1" stop-color="#c85468"/></linearGradient><filter id="shadow" x="-30%" y="-30%" width="160%" height="160%"><feGaussianBlur stdDeviation="3"/></filter><filter id="scan" x="-50%" y="-50%" width="200%" height="200%"><feGaussianBlur stdDeviation="1.5" result="b"/><feMerge><feMergeNode in="b"/><feMergeNode in="SourceGraphic"/></feMerge></filter><linearGradient id="sky" x1="0" y1="0" x2="0" y2="1"><stop offset="0" stop-color="#a9c7e3"/><stop offset="1" stop-color="#e9e2d6"/></linearGradient><pattern id="paper" width="6" height="6" patternUnits="userSpaceOnUse"><path d="M0 6L6 0" stroke="#d9d3c5" stroke-width="0.4"/></pattern></defs>
<g clip-path="url(#win)">
<rect width="420" height="250" fill="#0b0f14"/>
<rect width="420" height="34" fill="#121822"/>
<path d="M0 34.5H420" stroke="#2a3140"/>
<circle cx="20" cy="17" r="5.5" fill="#ff5f57"/><circle cx="38" cy="17" r="5.5" fill="#febc2e"/><circle cx="56" cy="17" r="5.5" fill="#28c840"/>
<text x="210.0" y="21.0" font-size="12" fill="#8b949e" text-anchor="middle" textLength="108.0" lengthAdjust="spacingAndGlyphs">~/edges-to-cats</text>
<rect x="26" y="50" width="122" height="122" rx="6" fill="#f4f1ea"/>
<rect x="26" y="50" width="122" height="122" rx="6" fill="url(#paper)" opacity="0.5"/>
<g transform="translate(30 54) scale(1.14)" fill="none" stroke="#23272e" stroke-width="1.15" stroke-linejoin="round" stroke-linecap="round" style="stroke-dasharray:1"><path d="M17 52C16 40 17 26 21 12L39 29C46 27 54 27 61 29L79 12C83 26 84 40 83 52C85 74 70 88 50 89C30 88 15 74 17 52Z" pathLength="1" class="p0"/><path d="M18 58L11 61L17 64L10 68L18 70L13 75L21 75" pathLength="1" class="p0"/><path d="M82 58L89 61L83 64L90 68L82 70L87 75L79 75" pathLength="1" class="p0"/><path d="M24 19L36 31L26 36Z M76 19L64 31L74 36Z" pathLength="1" class="p0"/><path d="M50 30V41 M43 31L45 41 M57 31L55 41 M38 33Q41 38 40 43 M62 33Q59 38 60 43" pathLength="1" class="p0"/><path d="M22 56L31 58 M21 62L30 62 M78 56L69 58 M79 62L70 62" pathLength="1" class="p0"/><path d="M30 51Q37 43 45 51Q37 58 30 51Z M55 51Q63 43 70 51Q63 58 55 51Z" pathLength="1" class="p0"/><path d="M37.5 46.5V55.5 M62.5 46.5V55.5" pathLength="1" class="p0"/><path d="M46 62Q50 60 54 62L50.8 66.5Q50 67.3 49.2 66.5Z" pathLength="1" class="p0"/><path d="M50 67V70 M50 70Q46 75 41 72 M50 70Q54 75 59 72" pathLength="1" class="p0"/><path d="M38 66Q24 62 8 61 M38 69Q24 68 7 70 M39 72Q26 74 11 79 M62 66Q76 62 92 61 M62 69Q76 68 93 70 M61 72Q74 74 89 79" pathLength="1" class="p0"/></g>
<defs><clipPath id="rc"><rect x="274" y="50" width="122" height="122" rx="6"/></clipPath></defs>
<g clip-path="url(#rc)"><rect x="274" y="50" width="122" height="122" fill="url(#sky)"/><circle cx="370" cy="74" r="26" fill="#ffffff" opacity="0.25" filter="url(#shadow)"/><g transform="translate(278 54) scale(1.14)"><ellipse cx="50" cy="90" rx="30" ry="5" fill="#000" opacity="0.35" filter="url(#shadow)"/><path d="M18 58L11 61L17 64L10 68L18 70L13 75L21 75Z" fill="#e8862f"/><path d="M82 58L89 61L83 64L90 68L82 70L87 75L79 75Z" fill="#e8862f"/><path d="M17 52C16 40 17 26 21 12L39 29C46 27 54 27 61 29L79 12C83 26 84 40 83 52C85 74 70 88 50 89C30 88 15 74 17 52Z" fill="url(#fur)" stroke="#8a4512" stroke-width="0.8"/><path d="M24 19L36 31L26 36Z M76 19L64 31L74 36Z" fill="url(#ear)"/><path d="M27 22L31 30 M73 22L69 30 M29 21L33 28 M71 21L67 28" stroke="#fff3e6" stroke-width="0.5" opacity="0.8"/><path d="M57.0 24.2l-1.4 3.7" stroke="#9c4f12" stroke-width="0.7" opacity="0.55"/><path d="M22.7 73.6l-0.6 3.9" stroke="#9c4f12" stroke-width="0.7" opacity="0.55"/><path d="M36.5 35.0l1.2 2.8" stroke="#9c4f12" stroke-width="0.7" opacity="0.55"/><path d="M77.8 50.1l-0.1 3.0" stroke="#9c4f12" stroke-width="0.7" opacity="0.55"/><path d="M57.8 29.6l0.4 3.2" stroke="#9c4f12" stroke-width="0.7" opacity="0.55"/><path d="M59.6 24.1l0.2 3.2" stroke="#9c4f12" stroke-width="0.7" opacity="0.55"/><path d="M38.9 22.0l1.3 3.0" stroke="#9c4f12" stroke-width="0.7" opacity="0.55"/><path d="M70.5 50.3l-0.2 3.4" stroke="#9c4f12" stroke-width="0.7" opacity="0.55"/><path d="M62.3 76.2l-0.8 2.6" stroke="#9c4f12" stroke-width="0.7" opacity="0.55"/><path d="M62.0 79.0l1.4 3.0" stroke="#9c4f12" stroke-width="0.7" opacity="0.55"/><path d="M46.9 79.9l0.1 2.0" stroke="#9c4f12" stroke-width="0.7" opacity="0.55"/><path d="M71.2 26.2l-0.3 3.2" stroke="#9c4f12" stroke-width="0.7" opacity="0.55"/><path d="M29.6 33.9l-1.4 3.2" stroke="#9c4f12" stroke-width="0.7" opacity="0.55"/><path d="M76.1 47.9l0.4 2.1" stroke="#9c4f12" stroke-width="0.7" opacity="0.55"/><path d="M57.1 39.3l0.4 2.9" stroke="#9c4f12" stroke-width="0.7" opacity="0.55"/><path d="M50.4 44.7l0.5 2.7" stroke="#9c4f12" stroke-width="0.7" opacity="0.55"/><path d="M54.7 77.9l0.6 3.5" stroke="#9c4f12" stroke-width="0.7" opacity="0.55"/><path d="M60.2 79.5l-1.4 2.1" stroke="#9c4f12" stroke-width="0.7" opacity="0.55"/><path d="M70.0 83.4l0.5 3.9" stroke="#9c4f12" stroke-width="0.7" opacity="0.55"/><path d="M59.6 30.4l-0.7 2.9" stroke="#9c4f12" stroke-width="0.7" opacity="0.55"/><path d="M70.2 81.7l0.3 2.6" stroke="#9c4f12" stroke-width="0.7" opacity="0.55"/><path d="M72.7 56.4l-0.4 2.6" stroke="#9c4f12" stroke-width="0.7" opacity="0.55"/><path d="M62.0 33.5l-0.4 3.2" stroke="#9c4f12" stroke-width="0.7" opacity="0.55"/><path d="M38.0 24.1l-0.6 2.8" stroke="#9c4f12" stroke-width="0.7" opacity="0.55"/><path d="M69.8 83.3l0.8 2.1" stroke="#9c4f12" stroke-width="0.7" opacity="0.55"/><path d="M27.0 71.2l0.2 3.5" stroke="#9c4f12" stroke-width="0.7" opacity="0.55"/><path d="M45.0 29.6l-0.6 2.4" stroke="#9c4f12" stroke-width="0.7" opacity="0.55"/><path d="M70.9 22.8l0.9 2.5" stroke="#9c4f12" stroke-width="0.7" opacity="0.55"/><path d="M56.4 22.9l-0.9 2.9" stroke="#9c4f12" stroke-width="0.7" opacity="0.55"/><path d="M62.2 41.2l0.6 2.2" stroke="#9c4f12" stroke-width="0.7" opacity="0.55"/><path d="M71.3 82.8l-0.5 2.7" stroke="#9c4f12" stroke-width="0.7" opacity="0.55"/><path d="M50.3 83.9l1.0 2.9" stroke="#9c4f12" stroke-width="0.7" opacity="0.55"/><path d="M39.3 24.9l1.1 2.3" stroke="#9c4f12" stroke-width="0.7" opacity="0.55"/><path d="M55.6 22.0l-0.5 3.3" stroke="#9c4f12" stroke-width="0.7" opacity="0.55"/><path d="M56.2 30.0l1.2 2.9" stroke="#9c4f12" stroke-width="0.7" opacity="0.55"/><path d="M50 30V41 M43 31L45 41 M57 31L55 41 M38 33Q41 38 40 43 M62 33Q59 38 60 43" stroke="#9c4e14" stroke-width="2.2" stroke-linecap="round" fill="none"/><path d="M22 56L31 58 M21 62L30 62 M78 56L69 58 M79 62L70 62" stroke="#9c4e14" stroke-width="2" stroke-linecap="round"/><ellipse cx="44" cy="69" rx="8" ry="6.5" fill="url(#muz)"/><ellipse cx="56" cy="69" rx="8" ry="6.5" fill="url(#muz)"/><ellipse cx="50" cy="76" rx="7" ry="4.5" fill="url(#muz)"/><path d="M30 51Q37 43 45 51Q37 58 30 51Z M55 51Q63 43 70 51Q63 58 55 51Z" fill="url(#iris)" stroke="#2b1a08" stroke-width="1.3"/><ellipse cx="37.5" cy="51" rx="1.8" ry="5" fill="#0c0f14"/><ellipse cx="62.5" cy="51" rx="1.8" ry="5" fill="#0c0f14"/><circle cx="35.8" cy="48.6" r="1.3" fill="#fff"/><circle cx="60.8" cy="48.6" r="1.3" fill="#fff"/><circle cx="39.4" cy="53" r="0.6" fill="#fff" opacity="0.7"/><circle cx="64.4" cy="53" r="0.6" fill="#fff" opacity="0.7"/><path d="M46 62Q50 60 54 62L50.8 66.5Q50 67.3 49.2 66.5Z" fill="url(#nose)"/><ellipse cx="48.6" cy="62.3" rx="1.4" ry="0.7" fill="#fff" opacity="0.6"/><path d="M50 67V70 M50 70Q46 75 41 72 M50 70Q54 75 59 72" stroke="#5a2c10" stroke-width="1.1" fill="none" stroke-linecap="round"/><path d="M38 66Q24 62 8 61 M38 69Q24 68 7 70 M39 72Q26 74 11 79 M62 66Q76 62 92 61 M62 69Q76 68 93 70 M61 72Q74 74 89 79" stroke="#fffaf0" stroke-width="0.55" fill="none" opacity="0.9"/><circle cx="42" cy="68" r="0.6" fill="#8a5a30"/><circle cx="45" cy="70" r="0.6" fill="#8a5a30"/><circle cx="58" cy="68" r="0.6" fill="#8a5a30"/><circle cx="55" cy="70" r="0.6" fill="#8a5a30"/></g><rect x="274" y="50" width="122" height="122" fill="#141a23" class="p1" style="transform:translateY(122px)"/><rect x="274" y="49" width="122" height="2" fill="#7ee7ff" filter="url(#scan)" class="p1" style="transform:translateY(122px)"/></g>
<rect x="274.5" y="50.5" width="121" height="121" rx="6" fill="none" stroke="#2a3140"/>
<path d="M173.0 80L205.0 102V120L173.0 142Z" fill="#1a2332" stroke="#79c0ff" stroke-width="1"/><path d="M249.0 80L217.0 102V120L249.0 142Z" fill="#1a2332" stroke="#7ee787" stroke-width="1"/><rect x="205.0" y="102" width="12" height="18" fill="#241a33" stroke="#d2a8ff"/>
<circle cx="173.0" cy="101" r="1.8" fill="#ffa657" class="p2" style="opacity:0"/>
<circle cx="173.0" cy="106" r="1.8" fill="#ffa657" class="p3" style="opacity:0"/>
<circle cx="173.0" cy="111" r="1.8" fill="#ffa657" class="p4" style="opacity:0"/>
<circle cx="173.0" cy="116" r="1.8" fill="#ffa657" class="p5" style="opacity:0"/>
<circle cx="173.0" cy="121" r="1.8" fill="#ffa657" class="p6" style="opacity:0"/>
<text x="211.0" y="162.0" font-size="12" fill="#ffa657" text-anchor="middle" font-weight="700" textLength="7.2" lengthAdjust="spacingAndGlyphs">G</text>
<text x="87.0" y="186.0" font-size="10" fill="#8b949e" text-anchor="middle" textLength="30.0" lengthAdjust="spacingAndGlyphs">edges</text>
<text x="335.0" y="186.0" font-size="10" fill="#8b949e" text-anchor="middle" textLength="48.0" lengthAdjust="spacingAndGlyphs">G(edges)</text>
<text x="18.0" y="216.0" font-size="14" fill="#e6edf3" font-weight="700" textLength="109.2" lengthAdjust="spacingAndGlyphs">Edges to cats</text>
<circle cx="327.0" cy="212" r="4.5" fill="#ff6f00"/>
<text x="402.0" y="216.0" font-size="11" fill="#8b949e" text-anchor="end" textLength="66.0" lengthAdjust="spacingAndGlyphs">TensorFlow</text>
<text x="18.0" y="236.0" font-size="12" fill="#8b949e" textLength="338.4" lengthAdjust="spacingAndGlyphs">pix2pix in TensorFlow: draw a sketch, get a cat</text>
</g>
<rect x="0.5" y="0.5" width="419" height="249" rx="12" fill="none" stroke="#2a3140"/>
</svg>
